<mxfile host="Electron" agent="Mozilla/5.0 (Windows NT 10.0; Win64; x64) AppleWebKit/537.36 (KHTML, like Gecko) draw.io/28.0.6 Chrome/138.0.7204.100 Electron/37.2.3 Safari/537.36" version="28.0.6">
  <diagram name="Page-1" id="8-bTWrP0KWhKswvyltWO">
    <mxGraphModel dx="1928" dy="1333" grid="1" gridSize="10" guides="1" tooltips="1" connect="1" arrows="1" fold="1" page="0" pageScale="1" pageWidth="1100" pageHeight="850" math="0" shadow="0">
      <root>
        <mxCell id="0" />
        <mxCell id="1" parent="0" />
        <mxCell id="knyrYtmJuzUSIyfH_HG9-1" value="&lt;span style=&quot;color: rgba(0, 0, 0, 0); font-family: monospace; font-size: 0px; text-align: start; text-wrap-mode: nowrap;&quot;&gt;%3CmxGraphModel%3E%3Croot%3E%3CmxCell%20id%3D%220%22%2F%3E%3CmxCell%20id%3D%221%22%20parent%3D%220%22%2F%3E%3CmxCell%20id%3D%222%22%20value%3D%22%22%20style%3D%22sketch%3D0%3BpointerEvents%3D1%3Bshadow%3D0%3Bdashed%3D0%3Bhtml%3D1%3BstrokeColor%3D%23d6b656%3BfillColor%3D%23fff2cc%3BlabelPosition%3Dcenter%3BverticalLabelPosition%3Dbottom%3BverticalAlign%3Dtop%3BoutlineConnect%3D0%3Balign%3Dcenter%3Bshape%3Dmxgraph.office.concepts.folder_open%3BgradientColor%3D%23ffd966%3B%22%20vertex%3D%221%22%20parent%3D%221%22%3E%3CmxGeometry%20x%3D%22255%22%20y%3D%22210%22%20width%3D%2240%22%20height%3D%2230%22%20as%3D%22geometry%22%2F%3E%3C%2FmxCell%3E%3CmxCell%20id%3D%223%22%20value%3D%22%22%20style%3D%22image%3Baspect%3Dfixed%3Bhtml%3D1%3Bpoints%3D%5B%5D%3Balign%3Dcenter%3BfontSize%3D12%3Bimage%3Dimg%2Flib%2Fazure2%2Fgeneral%2FFile.svg%3B%22%20vertex%3D%221%22%20parent%3D%221%22%3E%3CmxGeometry%20x%3D%22280%22%20y%3D%22220%22%20width%3D%2220%22%20height%3D%2224.64%22%20as%3D%22geometry%22%2F%3E%3C%2FmxCell%3E%3CmxCell%20id%3D%224%22%20value%3D%22%26lt%3Bb%26gt%3BCRM%26lt%3B%2Fb%26gt%3B%22%20style%3D%22text%3Bhtml%3D1%3Balign%3Dcenter%3BverticalAlign%3Dmiddle%3BwhiteSpace%3Dwrap%3Brounded%3D0%3B%22%20vertex%3D%221%22%20parent%3D%221%22%3E%3CmxGeometry%20x%3D%22255%22%20y%3D%22240%22%20width%3D%2250%22%20height%3D%2224.64%22%20as%3D%22geometry%22%2F%3E%3C%2FmxCell%3E%3CmxCell%20id%3D%225%22%20value%3D%22%22%20style%3D%22sketch%3D0%3BpointerEvents%3D1%3Bshadow%3D0%3Bdashed%3D0%3Bhtml%3D1%3BstrokeColor%3D%23d6b656%3BfillColor%3D%23fff2cc%3BlabelPosition%3Dcenter%3BverticalLabelPosition%3Dbottom%3BverticalAlign%3Dtop%3BoutlineConnect%3D0%3Balign%3Dcenter%3Bshape%3Dmxgraph.office.concepts.folder_open%3BgradientColor%3D%23ffd966%3B%22%20vertex%3D%221%22%20parent%3D%221%22%3E%3CmxGeometry%20x%3D%22255%22%20y%3D%22264.64%22%20width%3D%2240%22%20height%3D%2230%22%20as%3D%22geometry%22%2F%3E%3C%2FmxCell%3E%3CmxCell%20id%3D%226%22%20value%3D%22%22%20style%3D%22image%3Baspect%3Dfixed%3Bhtml%3D1%3Bpoints%3D%5B%5D%3Balign%3Dcenter%3BfontSize%3D12%3Bimage%3Dimg%2Flib%2Fazure2%2Fgeneral%2FFile.svg%3B%22%20vertex%3D%221%22%20parent%3D%221%22%3E%3CmxGeometry%20x%3D%22280%22%20y%3D%22275.36%22%20width%3D%2220%22%20height%3D%2224.64%22%20as%3D%22geometry%22%2F%3E%3C%2FmxCell%3E%3CmxCell%20id%3D%227%22%20value%3D%22%26lt%3Bb%26gt%3BERP%26lt%3B%2Fb%26gt%3B%22%20style%3D%22text%3Bhtml%3D1%3Balign%3Dcenter%3BverticalAlign%3Dmiddle%3BwhiteSpace%3Dwrap%3Brounded%3D0%3B%22%20vertex%3D%221%22%20parent%3D%221%22%3E%3CmxGeometry%20x%3D%22250%22%20y%3D%22294.64%22%20width%3D%2250%22%20height%3D%2224.64%22%20as%3D%22geometry%22%2F%3E%3C%2FmxCell%3E%3CmxCell%20id%3D%228%22%20value%3D%22%22%20style%3D%22line%3BstrokeWidth%3D2%3Bhtml%3D1%3BstrokeColor%3D%23787878%3B%22%20vertex%3D%221%22%20parent%3D%221%22%3E%3CmxGeometry%20x%3D%22220%22%20y%3D%22330%22%20width%3D%22110%22%20height%3D%2210%22%20as%3D%22geometry%22%2F%3E%3C%2FmxCell%3E%3CmxCell%20id%3D%229%22%20value%3D%22Object%20Type%20%3A%20CSV%20Files%26lt%3Bdiv%26gt%3B%26lt%3Bbr%26gt%3B%26lt%3B%2Fdiv%26gt%3B%22%20style%3D%22text%3Bhtml%3D1%3Balign%3Dcenter%3BverticalAlign%3Dmiddle%3BwhiteSpace%3Dwrap%3Brounded%3D0%3B%22%20vertex%3D%221%22%20parent%3D%221%22%3E%3CmxGeometry%20x%3D%22220%22%20y%3D%22360%22%20width%3D%22110%22%20height%3D%2230%22%20as%3D%22geometry%22%2F%3E%3C%2FmxCell%3E%3C%2Froot%3E%3C%2FmxGraphModel%3E&lt;/span&gt;&lt;span style=&quot;color: rgba(0, 0, 0, 0); font-family: monospace; font-size: 0px; text-align: start; text-wrap-mode: nowrap;&quot;&gt;%3CmxGraphModel%3E%3Croot%3E%3CmxCell%20id%3D%220%22%2F%3E%3CmxCell%20id%3D%221%22%20parent%3D%220%22%2F%3E%3CmxCell%20id%3D%222%22%20value%3D%22%22%20style%3D%22sketch%3D0%3BpointerEvents%3D1%3Bshadow%3D0%3Bdashed%3D0%3Bhtml%3D1%3BstrokeColor%3D%23d6b656%3BfillColor%3D%23fff2cc%3BlabelPosition%3Dcenter%3BverticalLabelPosition%3Dbottom%3BverticalAlign%3Dtop%3BoutlineConnect%3D0%3Balign%3Dcenter%3Bshape%3Dmxgraph.office.concepts.folder_open%3BgradientColor%3D%23ffd966%3B%22%20vertex%3D%221%22%20parent%3D%221%22%3E%3CmxGeometry%20x%3D%22255%22%20y%3D%22210%22%20width%3D%2240%22%20height%3D%2230%22%20as%3D%22geometry%22%2F%3E%3C%2FmxCell%3E%3CmxCell%20id%3D%223%22%20value%3D%22%22%20style%3D%22image%3Baspect%3Dfixed%3Bhtml%3D1%3Bpoints%3D%5B%5D%3Balign%3Dcenter%3BfontSize%3D12%3Bimage%3Dimg%2Flib%2Fazure2%2Fgeneral%2FFile.svg%3B%22%20vertex%3D%221%22%20parent%3D%221%22%3E%3CmxGeometry%20x%3D%22280%22%20y%3D%22220%22%20width%3D%2220%22%20height%3D%2224.64%22%20as%3D%22geometry%22%2F%3E%3C%2FmxCell%3E%3CmxCell%20id%3D%224%22%20value%3D%22%26lt%3Bb%26gt%3BCRM%26lt%3B%2Fb%26gt%3B%22%20style%3D%22text%3Bhtml%3D1%3Balign%3Dcenter%3BverticalAlign%3Dmiddle%3BwhiteSpace%3Dwrap%3Brounded%3D0%3B%22%20vertex%3D%221%22%20parent%3D%221%22%3E%3CmxGeometry%20x%3D%22255%22%20y%3D%22240%22%20width%3D%2250%22%20height%3D%2224.64%22%20as%3D%22geometry%22%2F%3E%3C%2FmxCell%3E%3CmxCell%20id%3D%225%22%20value%3D%22%22%20style%3D%22sketch%3D0%3BpointerEvents%3D1%3Bshadow%3D0%3Bdashed%3D0%3Bhtml%3D1%3BstrokeColor%3D%23d6b656%3BfillColor%3D%23fff2cc%3BlabelPosition%3Dcenter%3BverticalLabelPosition%3Dbottom%3BverticalAlign%3Dtop%3BoutlineConnect%3D0%3Balign%3Dcenter%3Bshape%3Dmxgraph.office.concepts.folder_open%3BgradientColor%3D%23ffd966%3B%22%20vertex%3D%221%22%20parent%3D%221%22%3E%3CmxGeometry%20x%3D%22255%22%20y%3D%22264.64%22%20width%3D%2240%22%20height%3D%2230%22%20as%3D%22geometry%22%2F%3E%3C%2FmxCell%3E%3CmxCell%20id%3D%226%22%20value%3D%22%22%20style%3D%22image%3Baspect%3Dfixed%3Bhtml%3D1%3Bpoints%3D%5B%5D%3Balign%3Dcenter%3BfontSize%3D12%3Bimage%3Dimg%2Flib%2Fazure2%2Fgeneral%2FFile.svg%3B%22%20vertex%3D%221%22%20parent%3D%221%22%3E%3CmxGeometry%20x%3D%22280%22%20y%3D%22275.36%22%20width%3D%2220%22%20height%3D%2224.64%22%20as%3D%22geometry%22%2F%3E%3C%2FmxCell%3E%3CmxCell%20id%3D%227%22%20value%3D%22%26lt%3Bb%26gt%3BERP%26lt%3B%2Fb%26gt%3B%22%20style%3D%22text%3Bhtml%3D1%3Balign%3Dcenter%3BverticalAlign%3Dmiddle%3BwhiteSpace%3Dwrap%3Brounded%3D0%3B%22%20vertex%3D%221%22%20parent%3D%221%22%3E%3CmxGeometry%20x%3D%22250%22%20y%3D%22294.64%22%20width%3D%2250%22%20height%3D%2224.64%22%20as%3D%22geometry%22%2F%3E%3C%2FmxCell%3E%3CmxCell%20id%3D%228%22%20value%3D%22%22%20style%3D%22line%3BstrokeWidth%3D2%3Bhtml%3D1%3BstrokeColor%3D%23787878%3B%22%20vertex%3D%221%22%20parent%3D%221%22%3E%3CmxGeometry%20x%3D%22220%22%20y%3D%22330%22%20width%3D%22110%22%20height%3D%2210%22%20as%3D%22geometry%22%2F%3E%3C%2FmxCell%3E%3CmxCell%20id%3D%229%22%20value%3D%22Object%20Type%20%3A%20CSV%20Files%26lt%3Bdiv%26gt%3B%26lt%3Bbr%26gt%3B%26lt%3B%2Fdiv%26gt%3B%22%20style%3D%22text%3Bhtml%3D1%3Balign%3Dcenter%3BverticalAlign%3Dmiddle%3BwhiteSpace%3Dwrap%3Brounded%3D0%3B%22%20vertex%3D%221%22%20parent%3D%221%22%3E%3CmxGeometry%20x%3D%22220%22%20y%3D%22360%22%20width%3D%22110%22%20height%3D%2230%22%20as%3D%22geometry%22%2F%3E%3C%2FmxCell%3E%3C%2Froot%3E%3C%2FmxGraphModel%3E&lt;/span&gt;" style="rounded=0;whiteSpace=wrap;html=1;strokeColor=#A9A9A9;dashed=1;" parent="1" vertex="1">
          <mxGeometry x="-141.87" y="63.32" width="230" height="758" as="geometry" />
        </mxCell>
        <mxCell id="knyrYtmJuzUSIyfH_HG9-2" value="&lt;font style=&quot;font-size: 26px;&quot;&gt;&lt;b style=&quot;&quot;&gt;Sources&lt;/b&gt;&lt;/font&gt;" style="rounded=0;whiteSpace=wrap;html=1;strokeColor=#F5F5F5;" parent="1" vertex="1">
          <mxGeometry x="-73.75" y="42" width="90" height="40" as="geometry" />
        </mxCell>
        <mxCell id="knyrYtmJuzUSIyfH_HG9-3" value="" style="rounded=0;whiteSpace=wrap;html=1;strokeColor=#A5A5A5;dashed=1;" parent="1" vertex="1">
          <mxGeometry x="130" y="62.32" width="840" height="760" as="geometry" />
        </mxCell>
        <mxCell id="knyrYtmJuzUSIyfH_HG9-4" value="&lt;font style=&quot;font-size: 29px;&quot;&gt;&lt;b style=&quot;&quot;&gt;Data Warehouse&lt;/b&gt;&lt;/font&gt;" style="rounded=0;whiteSpace=wrap;html=1;strokeColor=#F5F5F5;" parent="1" vertex="1">
          <mxGeometry x="357.5" y="25" width="355" height="57" as="geometry" />
        </mxCell>
        <mxCell id="knyrYtmJuzUSIyfH_HG9-5" value="" style="rounded=0;whiteSpace=wrap;html=1;strokeColor=#A9A9A9;dashed=1;" parent="1" vertex="1">
          <mxGeometry x="1010" y="64.28" width="190" height="760" as="geometry" />
        </mxCell>
        <mxCell id="knyrYtmJuzUSIyfH_HG9-6" value="&lt;font style=&quot;font-size: 23px;&quot;&gt;&lt;b&gt;Consumers&lt;/b&gt;&lt;/font&gt;" style="rounded=0;whiteSpace=wrap;html=1;strokeColor=#F5F5F5;" parent="1" vertex="1">
          <mxGeometry x="1058.04" y="42" width="90" height="40" as="geometry" />
        </mxCell>
        <mxCell id="knyrYtmJuzUSIyfH_HG9-10" style="edgeStyle=orthogonalEdgeStyle;rounded=0;orthogonalLoop=1;jettySize=auto;html=1;exitX=0.5;exitY=1;exitDx=0;exitDy=0;" parent="1" source="knyrYtmJuzUSIyfH_HG9-7" target="knyrYtmJuzUSIyfH_HG9-7" edge="1">
          <mxGeometry relative="1" as="geometry" />
        </mxCell>
        <mxCell id="knyrYtmJuzUSIyfH_HG9-11" value="" style="rounded=0;whiteSpace=wrap;html=1;fillColor=light-dark(#FFFFFF,#CF8360);fontColor=#0F0F0F;strokeColor=#BD5220;" parent="1" vertex="1">
          <mxGeometry x="160" y="140" width="230" height="655" as="geometry" />
        </mxCell>
        <mxCell id="knyrYtmJuzUSIyfH_HG9-14" value="" style="rounded=0;whiteSpace=wrap;html=1;strokeColor=#C1C1C1;" parent="1" vertex="1">
          <mxGeometry x="425.01" y="140" width="234.99" height="655" as="geometry" />
        </mxCell>
        <mxCell id="knyrYtmJuzUSIyfH_HG9-15" value="&lt;div&gt;&lt;br/&gt;&lt;/div&gt;" style="rounded=0;whiteSpace=wrap;html=1;strokeColor=#F9E358;" parent="1" vertex="1">
          <mxGeometry x="710" y="140" width="214.99" height="655" as="geometry" />
        </mxCell>
        <mxCell id="knyrYtmJuzUSIyfH_HG9-17" value="&lt;font style=&quot;font-size: 22px;&quot;&gt;&lt;b style=&quot;&quot;&gt;Gold Layer&lt;/b&gt;&lt;/font&gt;" style="rounded=0;whiteSpace=wrap;html=1;fillColor=#f0a30a;fontColor=#000000;strokeColor=#BD7000;" parent="1" vertex="1">
          <mxGeometry x="741.24" y="110" width="168.76" height="46.16" as="geometry" />
        </mxCell>
        <mxCell id="knyrYtmJuzUSIyfH_HG9-38" value="" style="sketch=0;pointerEvents=1;shadow=0;dashed=0;html=1;strokeColor=#d6b656;fillColor=#fff2cc;labelPosition=center;verticalLabelPosition=bottom;verticalAlign=top;outlineConnect=0;align=center;shape=mxgraph.office.concepts.folder_open;gradientColor=#ffd966;" parent="1" vertex="1">
          <mxGeometry x="-86" y="253.8" width="86.25" height="66.64" as="geometry" />
        </mxCell>
        <mxCell id="knyrYtmJuzUSIyfH_HG9-39" value="" style="image;aspect=fixed;html=1;points=[];align=center;fontSize=12;image=img/lib/azure2/general/File.svg;" parent="1" vertex="1">
          <mxGeometry x="-31.25" y="283.84" width="42.4" height="52.24" as="geometry" />
        </mxCell>
        <mxCell id="knyrYtmJuzUSIyfH_HG9-40" value="&lt;b&gt;&lt;font style=&quot;font-size: 20px;&quot;&gt;CRM&lt;/font&gt;&lt;/b&gt;" style="text;html=1;align=center;verticalAlign=middle;whiteSpace=wrap;rounded=0;" parent="1" vertex="1">
          <mxGeometry x="-80" y="338.04" width="90" height="24.64" as="geometry" />
        </mxCell>
        <mxCell id="knyrYtmJuzUSIyfH_HG9-43" value="&lt;b&gt;&lt;font style=&quot;font-size: 20px;&quot;&gt;ERP&lt;/font&gt;&lt;/b&gt;" style="text;html=1;align=center;verticalAlign=middle;whiteSpace=wrap;rounded=0;" parent="1" vertex="1">
          <mxGeometry x="-60" y="475.36" width="50" height="24.64" as="geometry" />
        </mxCell>
        <mxCell id="knyrYtmJuzUSIyfH_HG9-44" value="" style="line;strokeWidth=2;html=1;strokeColor=#787878;" parent="1" vertex="1">
          <mxGeometry x="-123.75" y="505" width="193.75" height="10" as="geometry" />
        </mxCell>
        <mxCell id="knyrYtmJuzUSIyfH_HG9-45" value="&lt;div style=&quot;text-align: left;&quot;&gt;&lt;span style=&quot;background-color: transparent; color: light-dark(rgb(0, 0, 0), rgb(255, 255, 255));&quot;&gt;&lt;font style=&quot;font-size: 19px;&quot;&gt;&lt;b style=&quot;&quot;&gt;Object Type&lt;/b&gt; : CSV Files&lt;/font&gt;&lt;/span&gt;&lt;/div&gt;&lt;div&gt;&lt;div style=&quot;text-align: left;&quot;&gt;&lt;span style=&quot;background-color: transparent; color: light-dark(rgb(0, 0, 0), rgb(255, 255, 255));&quot;&gt;&lt;font style=&quot;font-size: 19px;&quot;&gt;&lt;b style=&quot;&quot;&gt;Interface&lt;/b&gt; : Files in Folder&lt;/font&gt;&lt;/span&gt;&lt;/div&gt;&lt;div&gt;&lt;br&gt;&lt;/div&gt;&lt;/div&gt;" style="text;html=1;align=center;verticalAlign=middle;whiteSpace=wrap;rounded=0;" parent="1" vertex="1">
          <mxGeometry x="-113.13" y="575" width="183.13" height="30" as="geometry" />
        </mxCell>
        <mxCell id="knyrYtmJuzUSIyfH_HG9-46" value="" style="html=1;verticalLabelPosition=bottom;align=center;labelBackgroundColor=#ffffff;verticalAlign=top;strokeWidth=2;strokeColor=#BD5220;shadow=0;dashed=0;shape=mxgraph.ios7.icons.data;" parent="1" vertex="1">
          <mxGeometry x="230.82" y="187.67999999999998" width="88.37" height="100.36" as="geometry" />
        </mxCell>
        <mxCell id="knyrYtmJuzUSIyfH_HG9-47" value="" style="html=1;verticalLabelPosition=bottom;align=center;labelBackgroundColor=#ffffff;verticalAlign=top;strokeWidth=2;strokeColor=#B3B3B3;shadow=0;dashed=0;shape=mxgraph.ios7.icons.data;" parent="1" vertex="1">
          <mxGeometry x="492.52" y="190.36" width="92.49" height="99.96" as="geometry" />
        </mxCell>
        <mxCell id="knyrYtmJuzUSIyfH_HG9-48" value="" style="html=1;verticalLabelPosition=bottom;align=center;labelBackgroundColor=#ffffff;verticalAlign=top;strokeWidth=2;strokeColor=#F0A30A;shadow=0;dashed=0;shape=mxgraph.ios7.icons.data;" parent="1" vertex="1">
          <mxGeometry x="762.49" y="187.68" width="90" height="96.16" as="geometry" />
        </mxCell>
        <mxCell id="knyrYtmJuzUSIyfH_HG9-49" value="" style="shape=mxgraph.arrows.arrow_right;html=1;verticalLabelPosition=bottom;verticalAlign=top;strokeWidth=2;strokeColor=#66B2FF;fillColor=#66B2FF;" parent="1" vertex="1">
          <mxGeometry x="364.99" y="377.62" width="65.01" height="38.68" as="geometry" />
        </mxCell>
        <mxCell id="knyrYtmJuzUSIyfH_HG9-56" value="" style="line;strokeWidth=2;html=1;strokeColor=#787878;" parent="1" vertex="1">
          <mxGeometry x="180" y="314.28" width="180" height="10" as="geometry" />
        </mxCell>
        <mxCell id="knyrYtmJuzUSIyfH_HG9-57" value="" style="line;strokeWidth=2;html=1;strokeColor=#787878;" parent="1" vertex="1">
          <mxGeometry x="440" y="310.44" width="190" height="10" as="geometry" />
        </mxCell>
        <mxCell id="knyrYtmJuzUSIyfH_HG9-58" value="" style="line;strokeWidth=2;html=1;strokeColor=#787878;" parent="1" vertex="1">
          <mxGeometry x="720" y="307.76000000000005" width="174.99" height="10" as="geometry" />
        </mxCell>
        <mxCell id="knyrYtmJuzUSIyfH_HG9-59" value="&lt;font style=&quot;font-size: 19px;&quot;&gt;&lt;b style=&quot;&quot;&gt;Object Type&lt;/b&gt; : Tables&lt;/font&gt;&lt;div&gt;&lt;font style=&quot;font-size: 19px;&quot;&gt;&lt;b&gt;Load&lt;/b&gt; :&amp;nbsp;&lt;/font&gt;&lt;/div&gt;&lt;div&gt;&lt;ul&gt;&lt;li&gt;&lt;font style=&quot;font-size: 19px;&quot;&gt;Batch Processing&amp;nbsp;&lt;/font&gt;&lt;/li&gt;&lt;li&gt;&lt;font style=&quot;font-size: 19px;&quot;&gt;Ful Load&amp;nbsp;&lt;/font&gt;&lt;/li&gt;&lt;li&gt;&lt;font style=&quot;font-size: 19px;&quot;&gt;Truncate &amp;amp; Insert&lt;/font&gt;&lt;/li&gt;&lt;/ul&gt;&lt;font style=&quot;font-size: 19px;&quot;&gt;No&amp;nbsp;&lt;b&gt;Transformation&lt;/b&gt;&lt;/font&gt;&lt;/div&gt;&lt;div&gt;&lt;font style=&quot;font-size: 19px;&quot;&gt;&lt;b style=&quot;&quot;&gt;Data Model&lt;/b&gt; : None&lt;/font&gt;&lt;/div&gt;" style="text;html=1;align=left;verticalAlign=middle;whiteSpace=wrap;rounded=0;" parent="1" vertex="1">
          <mxGeometry x="170" y="455" width="200" height="110" as="geometry" />
        </mxCell>
        <mxCell id="knyrYtmJuzUSIyfH_HG9-60" value="&lt;font style=&quot;font-size: 19px;&quot;&gt;&lt;b style=&quot;&quot;&gt;Object Type&lt;/b&gt; : Tables&lt;/font&gt;&lt;div&gt;&lt;font style=&quot;font-size: 19px;&quot;&gt;&lt;b&gt;Load&lt;/b&gt; :&amp;nbsp;&lt;/font&gt;&lt;/div&gt;&lt;div&gt;&lt;ul&gt;&lt;li&gt;&lt;font style=&quot;font-size: 19px;&quot;&gt;Batch Processing&amp;nbsp;&lt;/font&gt;&lt;/li&gt;&lt;li&gt;&lt;font style=&quot;font-size: 19px;&quot;&gt;Ful Load&amp;nbsp;&lt;/font&gt;&lt;/li&gt;&lt;li&gt;&lt;font style=&quot;font-size: 19px;&quot;&gt;Truncate &amp;amp; Insert&lt;/font&gt;&lt;/li&gt;&lt;/ul&gt;&lt;font style=&quot;font-size: 19px;&quot;&gt;&lt;b&gt;Transformations&lt;/b&gt; :&lt;/font&gt;&lt;/div&gt;&lt;div&gt;&lt;ul&gt;&lt;li&gt;&lt;font style=&quot;font-size: 19px;&quot;&gt;Data Cleansing&lt;/font&gt;&lt;/li&gt;&lt;li&gt;&lt;font style=&quot;font-size: 19px;&quot;&gt;Data Enrichment&lt;/font&gt;&lt;/li&gt;&lt;li&gt;&lt;font style=&quot;font-size: 19px;&quot;&gt;Data Normalization&lt;/font&gt;&lt;/li&gt;&lt;li&gt;&lt;font style=&quot;font-size: 19px;&quot;&gt;Data Standardization&lt;/font&gt;&lt;/li&gt;&lt;li&gt;&lt;font style=&quot;font-size: 19px;&quot;&gt;Derived Columns&lt;/font&gt;&lt;/li&gt;&lt;/ul&gt;&lt;font style=&quot;font-size: 19px;&quot;&gt;&lt;b&gt;Data Model&lt;/b&gt; : None&lt;/font&gt;&lt;/div&gt;&lt;div style=&quot;&quot;&gt;&lt;font style=&quot;font-size: 19px;&quot;&gt;&amp;nbsp;&lt;/font&gt;&lt;/div&gt;" style="text;html=1;align=left;verticalAlign=middle;whiteSpace=wrap;rounded=0;" parent="1" vertex="1">
          <mxGeometry x="430" y="500" width="220" height="180" as="geometry" />
        </mxCell>
        <mxCell id="knyrYtmJuzUSIyfH_HG9-61" value="&lt;font style=&quot;font-size: 19px;&quot;&gt;&lt;b style=&quot;&quot;&gt;Raw Data&lt;/b&gt;&lt;/font&gt;" style="text;html=1;align=center;verticalAlign=middle;whiteSpace=wrap;rounded=0;" parent="1" vertex="1">
          <mxGeometry x="217.53" y="337.82" width="101.66" height="30" as="geometry" />
        </mxCell>
        <mxCell id="knyrYtmJuzUSIyfH_HG9-62" value="&lt;font style=&quot;font-size: 19px;&quot;&gt;&lt;b style=&quot;&quot;&gt;Clean, Standardized Data&amp;nbsp;&lt;/b&gt;&lt;/font&gt;" style="text;html=1;align=center;verticalAlign=middle;whiteSpace=wrap;rounded=0;strokeWidth=2;" parent="1" vertex="1">
          <mxGeometry x="480" y="344.64" width="110" height="30" as="geometry" />
        </mxCell>
        <mxCell id="knyrYtmJuzUSIyfH_HG9-65" value="&lt;span style=&quot;float: none; color: rgb(0, 0, 0); background-color: rgb(255, 255, 255); display: inline !important;&quot;&gt;&lt;b style=&quot;&quot;&gt;&lt;font style=&quot;font-size: 19px;&quot;&gt;Business Ready Data&lt;/font&gt;&lt;/b&gt;&lt;/span&gt;" style="text;html=1;align=center;verticalAlign=middle;whiteSpace=wrap;rounded=0;" parent="1" vertex="1">
          <mxGeometry x="752.5" y="332.31999999999994" width="110" height="30" as="geometry" />
        </mxCell>
        <mxCell id="knyrYtmJuzUSIyfH_HG9-66" value="&lt;span style=&quot;&quot;&gt;&lt;font style=&quot;font-size: 19px;&quot;&gt;&lt;b style=&quot;&quot;&gt;Object Type&lt;/b&gt; : Views&lt;/font&gt;&lt;/span&gt;&lt;div style=&quot;&quot;&gt;&lt;font style=&quot;font-size: 19px;&quot;&gt;No&lt;b&gt; Load&lt;/b&gt;&amp;nbsp;&lt;/font&gt;&lt;/div&gt;&lt;div style=&quot;&quot;&gt;&lt;ul&gt;&lt;li&gt;&lt;font style=&quot;font-size: 19px;&quot;&gt;Batch Processing&amp;nbsp;&lt;/font&gt;&lt;/li&gt;&lt;li&gt;&lt;font style=&quot;font-size: 19px;&quot;&gt;Ful Load&amp;nbsp;&lt;/font&gt;&lt;/li&gt;&lt;li&gt;&lt;font style=&quot;font-size: 19px;&quot;&gt;Truncate &amp;amp; Insert&lt;/font&gt;&lt;/li&gt;&lt;/ul&gt;&lt;font style=&quot;font-size: 19px;&quot;&gt;&lt;b&gt;Transformations&lt;/b&gt; :&lt;/font&gt;&lt;/div&gt;&lt;div style=&quot;&quot;&gt;&lt;ul&gt;&lt;li&gt;&lt;font style=&quot;font-size: 19px;&quot;&gt;Data Integration&lt;/font&gt;&lt;/li&gt;&lt;li&gt;&lt;font style=&quot;font-size: 19px;&quot;&gt;Aggregations&lt;/font&gt;&lt;/li&gt;&lt;li&gt;&lt;font style=&quot;font-size: 19px;&quot;&gt;Business Logics&lt;/font&gt;&lt;/li&gt;&lt;/ul&gt;&lt;font style=&quot;font-size: 19px;&quot;&gt;&lt;b style=&quot;background-color: transparent; color: light-dark(rgb(0, 0, 0), rgb(255, 255, 255));&quot;&gt;Data Model&lt;/b&gt;&lt;span style=&quot;background-color: transparent; color: light-dark(rgb(0, 0, 0), rgb(255, 255, 255));&quot;&gt;&amp;nbsp;:&lt;/span&gt;&lt;/font&gt;&lt;/div&gt;&lt;div style=&quot;&quot;&gt;&lt;ul&gt;&lt;li&gt;&lt;span style=&quot;background-color: transparent; color: light-dark(rgb(0, 0, 0), rgb(255, 255, 255));&quot;&gt;&lt;font style=&quot;font-size: 19px;&quot;&gt;Star Schema&lt;/font&gt;&lt;/span&gt;&lt;/li&gt;&lt;li&gt;&lt;span style=&quot;background-color: transparent; color: light-dark(rgb(0, 0, 0), rgb(255, 255, 255));&quot;&gt;&lt;font style=&quot;font-size: 19px;&quot;&gt;Flat Table&lt;/font&gt;&lt;/span&gt;&lt;/li&gt;&lt;li&gt;&lt;span style=&quot;background-color: transparent; color: light-dark(rgb(0, 0, 0), rgb(255, 255, 255));&quot;&gt;&lt;font style=&quot;font-size: 19px;&quot;&gt;Aggregated Table&lt;/font&gt;&lt;/span&gt;&lt;/li&gt;&lt;/ul&gt;&lt;/div&gt;&lt;div style=&quot;&quot;&gt;&lt;font style=&quot;font-size: 14px;&quot;&gt;&lt;br&gt;&lt;/font&gt;&lt;/div&gt;" style="text;html=1;align=left;verticalAlign=middle;whiteSpace=wrap;rounded=0;" parent="1" vertex="1">
          <mxGeometry x="722.5" y="416.29999999999995" width="189.99" height="370" as="geometry" />
        </mxCell>
        <mxCell id="knyrYtmJuzUSIyfH_HG9-73" value="" style="verticalLabelPosition=bottom;sketch=0;aspect=fixed;html=1;verticalAlign=top;strokeColor=none;align=center;outlineConnect=0;shape=mxgraph.citrix.reporting;" parent="1" vertex="1">
          <mxGeometry x="1051.75" y="223.38" width="86.5" height="97.06" as="geometry" />
        </mxCell>
        <mxCell id="knyrYtmJuzUSIyfH_HG9-75" value="" style="sketch=0;html=1;aspect=fixed;strokeColor=none;shadow=0;fillColor=#3B8DF1;verticalAlign=top;labelPosition=center;verticalLabelPosition=bottom;shape=mxgraph.gcp2.big_query" parent="1" vertex="1">
          <mxGeometry x="1061.09" y="395.24" width="83.91" height="84.76" as="geometry" />
        </mxCell>
        <mxCell id="knyrYtmJuzUSIyfH_HG9-76" value="" style="points=[];aspect=fixed;html=1;align=center;shadow=0;dashed=0;fillColor=#FF6A00;strokeColor=none;shape=mxgraph.alibaba_cloud.machine_learning;" parent="1" vertex="1">
          <mxGeometry x="1068.09" y="565" width="69.9" height="70.32" as="geometry" />
        </mxCell>
        <mxCell id="knyrYtmJuzUSIyfH_HG9-77" value="&lt;font style=&quot;font-size: 20px;&quot;&gt;&lt;b&gt;BI &amp;amp; Reporting&lt;/b&gt;&lt;/font&gt;" style="text;html=1;align=center;verticalAlign=middle;whiteSpace=wrap;rounded=0;" parent="1" vertex="1">
          <mxGeometry x="1040" y="329.86" width="130" height="41" as="geometry" />
        </mxCell>
        <mxCell id="knyrYtmJuzUSIyfH_HG9-78" value="&lt;font style=&quot;font-size: 20px;&quot;&gt;&lt;b&gt;Ad - Hoc SQL queries&lt;/b&gt;&lt;/font&gt;" style="text;html=1;align=center;verticalAlign=middle;whiteSpace=wrap;rounded=0;" parent="1" vertex="1">
          <mxGeometry x="1041.96" y="500" width="126.09" height="30" as="geometry" />
        </mxCell>
        <mxCell id="knyrYtmJuzUSIyfH_HG9-80" value="&lt;font style=&quot;font-size: 21px;&quot;&gt;&lt;b&gt;Machine Learning&lt;/b&gt;&lt;/font&gt;" style="text;html=1;align=center;verticalAlign=middle;whiteSpace=wrap;rounded=0;" parent="1" vertex="1">
          <mxGeometry x="1073.04" y="650" width="60" height="30" as="geometry" />
        </mxCell>
        <mxCell id="knyrYtmJuzUSIyfH_HG9-83" value="" style="image;aspect=fixed;html=1;points=[];align=center;fontSize=12;image=img/lib/azure2/databases/SQL_Server_Registries.svg;" parent="1" vertex="1">
          <mxGeometry x="-2.25" y="-59.79" width="92.99" height="84.79" as="geometry" />
        </mxCell>
        <mxCell id="knyrYtmJuzUSIyfH_HG9-84" value="&lt;font style=&quot;font-size: 19px;&quot;&gt;SQL Server&lt;/font&gt;" style="text;html=1;align=center;verticalAlign=middle;whiteSpace=wrap;rounded=0;" parent="1" vertex="1">
          <mxGeometry x="60.249999999999986" y="-7.469999999999999" width="107" height="30" as="geometry" />
        </mxCell>
        <mxCell id="knyrYtmJuzUSIyfH_HG9-7" value="&lt;font style=&quot;font-size: 22px;&quot;&gt;&lt;b style=&quot;&quot;&gt;Bronze Layer&lt;/b&gt;&lt;/font&gt;" style="rounded=0;whiteSpace=wrap;html=1;fillColor=light-dark(#BD5220,#CF8360);fontColor=#0F0F0F;strokeColor=#6D1F00;" parent="1" vertex="1">
          <mxGeometry x="187.5" y="120" width="165" height="47.68" as="geometry" />
        </mxCell>
        <mxCell id="knyrYtmJuzUSIyfH_HG9-13" value="&lt;font style=&quot;font-size: 22px;&quot;&gt;&lt;b style=&quot;&quot;&gt;Silver Layer&lt;/b&gt;&lt;/font&gt;" style="rounded=0;whiteSpace=wrap;html=1;fillColor=#F5F5F5;strokeColor=#B3B3B3;gradientColor=#b3b3b3;" parent="1" vertex="1">
          <mxGeometry x="452.51" y="117.68" width="180" height="50" as="geometry" />
        </mxCell>
        <mxCell id="Bt1fgseMTqfDA_T7K32y-10" value="" style="shape=mxgraph.arrows.arrow_right;html=1;verticalLabelPosition=bottom;verticalAlign=top;strokeWidth=2;strokeColor=#66B2FF;fillColor=#66B2FF;" vertex="1" parent="1">
          <mxGeometry x="650" y="377.62" width="65.01" height="38.68" as="geometry" />
        </mxCell>
        <mxCell id="Bt1fgseMTqfDA_T7K32y-11" value="" style="shape=mxgraph.arrows.arrow_right;html=1;verticalLabelPosition=bottom;verticalAlign=top;strokeWidth=2;strokeColor=#66B2FF;fillColor=#66B2FF;" vertex="1" parent="1">
          <mxGeometry x="960" y="377.62" width="65.01" height="38.68" as="geometry" />
        </mxCell>
        <mxCell id="Bt1fgseMTqfDA_T7K32y-12" value="" style="shape=mxgraph.arrows.arrow_right;html=1;verticalLabelPosition=bottom;verticalAlign=top;strokeWidth=2;strokeColor=#66B2FF;fillColor=#66B2FF;" vertex="1" parent="1">
          <mxGeometry x="94.99000000000001" y="377.62" width="65.01" height="38.68" as="geometry" />
        </mxCell>
        <mxCell id="Bt1fgseMTqfDA_T7K32y-15" value="" style="sketch=0;pointerEvents=1;shadow=0;dashed=0;html=1;strokeColor=#d6b656;fillColor=#fff2cc;labelPosition=center;verticalLabelPosition=bottom;verticalAlign=top;outlineConnect=0;align=center;shape=mxgraph.office.concepts.folder_open;gradientColor=#ffd966;" vertex="1" parent="1">
          <mxGeometry x="-78.13" y="388.35999999999996" width="86.25" height="66.64" as="geometry" />
        </mxCell>
        <mxCell id="Bt1fgseMTqfDA_T7K32y-16" value="" style="image;aspect=fixed;html=1;points=[];align=center;fontSize=12;image=img/lib/azure2/general/File.svg;" vertex="1" parent="1">
          <mxGeometry x="-27.45" y="418.1599999999999" width="42.4" height="52.24" as="geometry" />
        </mxCell>
      </root>
    </mxGraphModel>
  </diagram>
</mxfile>
